<?xml version="1.0" encoding="UTF-8" standalone="no"?>
<!-- Created with Inkscape (http://www.inkscape.org/) -->

<svg
   width="938.16046"
   height="242.90269"
   viewBox="0 0 248.22161 64.268006"
   version="1.1"
   id="svg5"
   xmlns="http://www.w3.org/2000/svg"
   xmlns:svg="http://www.w3.org/2000/svg">
  <defs
     id="defs2">
    <rect
       x="283.95383"
       y="51.872746"
       width="665.97467"
       height="170.25964"
       id="rect3490" />
  </defs>
  <g
     id="g30323">
    <g
       id="layer1"
       transform="translate(-30.092182,-34.387145)">
      <g
         id="g7143"
         transform="matrix(1,0,0,1.0660415,0,-2.270978)">
        <path
           style="fill:#2ca089;fill-opacity:1;stroke:none;stroke-width:0.325081px;stroke-linecap:butt;stroke-linejoin:miter;stroke-opacity:1"
           d="M 91.124286,50.032369 C 57.801509,-8.4250576 63.542272,118.0802 85.426015,86.353122 87.255206,83.70114 100.19917,65.854499 91.124286,50.032369"
           id="path3630-6-2" />
        <path
           style="fill:#003380;fill-opacity:1;stroke:none;stroke-width:0.290672px;stroke-linecap:butt;stroke-linejoin:miter;stroke-opacity:1"
           d="m 77.191787,84.53671 c 29.731073,-53.78527 -57.860706,0.33756 -27.722051,8.64647 2.519208,0.694511 19.694542,5.963366 27.722051,-8.64647"
           id="path3630-6-2-0" />
        <path
           style="fill:#55ddff;fill-opacity:1;stroke:none;stroke-width:0.325472px;stroke-linecap:butt;stroke-linejoin:miter;stroke-opacity:1"
           d="M 63.98238,44.232632 C 102.1602,101.10092 7.2755288,61.636311 35.382533,42.155629 c 2.34939,-1.62833 18.276917,-13.38521 28.599847,2.077003"
           id="path3630-7" />
      </g>
    </g>
    <text
       xml:space="preserve"
       transform="matrix(1.4329333,0,0,1.4329333,-331.13196,-72.979781)"
       id="text3488"
       style="font-style:normal;font-weight:normal;font-size:40px;line-height:1.25;font-family:sans-serif;white-space:pre;shape-inside:url(#rect3490);fill:#000000;fill-opacity:1;stroke:none"><tspan
         x="283.95312"
         y="88.27567"
         id="tspan30355"><tspan
           style="font-family:'OpenDyslexicAlta Nerd Font';-inkscape-font-specification:'OpenDyslexicAlta Nerd Font'"
           id="tspan30353">Scuba</tspan></tspan></text>
  </g>
</svg>
